#!OML:ASF E:/inclinewalkrobotboard/Project1/Captureday1/Session1/subject1.ASF
:FULLY-SPECIFIED
:DEGREES
251
root 0 0 0 45.00462423969944 -47.16310902966998 -18.508984619191935
lowerback -6.486979094936877 3.6044838894896136 -0.4835741020136698
upperback -13.44220924644928 4.31087289759711 -0.08321779820182185
thorax -11.044672930876018 2.111961634904268 0.6774308542375862
lowerneck -11.438313487195508 6.768179871560207 4.441167407236107
upperneck 18.169718088859987 7.239282650540947 7.284277494784723
head 7.632873005388704 4.231296751536089 2.1629701703924815
rclavicle 9.215427593966122E-16 -1.8331342331728225E-15
rhumerus 7.804436286452763 -22.47860951679481 -48.47190347590495
rradius 27.943052751700098
rwrist 21.21625447152747
rhand 0.8002201859752525 7.403208863541837
rfingers 7.1250200000000286
rthumb 26.420611379920764 -19.654991366890567
lclavicle 1.4611335476244754E-15 -9.14572038431427E-16
lhumerus -10.57496046609815 3.8506895221557413 51.4598418790942
lradius 35.6421184392614
lwrist -7.740124135594696
lhand -1.7749606839020533 23.31766821776528
lfingers 7.125019999999975
lthumb 23.495678430945066 50.49107399212659
rfemur 58.70877010435494 -81.68350549157518 -55.875261027947246
rtibia 40.21508451118105
rfoot -18.416107606763738 -17.945534669256574
rtoes 21.611843744585453
lfemur -44.70008036732462 8.208422406374126 -27.116907689512857
ltibia 44.04168960388564
lfoot -22.75854667509245 14.88980941786821
ltoes 10.861158398918521
252
root 0 0 0 45.00453570593085 -47.162986734952625 -18.508946910644436
lowerback -6.486959880931617 3.604472743703376 -0.48357583147054806
upperback -13.4421908214725 4.31085965231895 -0.08320797787374357
thorax -11.044662556118606 2.111955776471831 0.677441210881768
lowerneck -11.43831299817391 6.768154050711613 4.44114866795562
upperneck 18.169728774015358 7.239252549511466 7.284264715146518
head 7.6328765514155 4.2312803659610285 2.162966088862852
rclavicle 9.216917352871449E-16 -1.833226908293008E-15
rhumerus 7.802950669677079 -22.478710447145414 -48.471292674851796
rradius 27.94336814629019
rwrist 21.215372036633987
rhand 0.7999580236925823 7.403544959407473
rfingers 7.1250200000000286
rthumb 26.420370594209317 -19.654699824300707
lclavicle 1.4613938063187127E-15 -9.1454055336353E-16
lhumerus -10.575140431837418 3.850191036812185 51.46080649511435
lradius 35.642577382291506
lwrist -7.739385261737285
lhand -1.774800784467919 23.317510183836863
lfingers 7.125019999999975
lthumb 23.495790734647628 50.49086873981058
rfemur 58.70844757997613 -81.68313167344847 -55.874885138128505
rtibia 40.21508595584214
rfoot -18.416076467451806 -17.945489012345334
rtoes 21.611789814662377
lfemur -44.70005577288463 8.208418648149777 -27.116896272438193
ltibia 44.041679015123194
lfoot -22.758538717725237 14.889797370146322
ltoes 10.861154095830937
253
root 0 0 0 45.00444857912618 -47.16286374702874 -18.50890924841419
lowerback -6.486941893410713 3.604461368431499 -0.4835778375147189
upperback -13.44217322682544 4.31084617626027 -0.08319784732578128
thorax -11.04465233600542 2.111949846582485 0.6774520538233759
lowerneck -11.438311753482996 6.7681281269791995 4.441129768714122
upperneck 18.16973997388788 7.239222340067448 7.284252160686455
head 7.632880182597691 4.23126392188287 2.1629620688341316
rclavicle 9.218337106643263E-16 -1.8333154436478147E-15
rhumerus 7.801539459510915 -22.478806910891432 -48.47070724181917
rradius 27.943668007565776
rwrist 21.21453349135567
rhand 0.7997114114894863 7.403862480137781
rfingers 7.1250200000000286
rthumb 26.420144280478258 -19.654424265128725
lclavicle 1.4616413713538486E-15 -9.145113541622764E-16
lhumerus -10.57530682450253 3.8497177914059364 51.46171859697254
lradius 35.64301512782426
lwrist -7.738684320849437
lhand -1.7746450579747286 23.317359765617688
lfingers 7.125019999999975
lthumb 23.495901331465838 50.49067284137481
rfemur 58.708139535546366 -81.68277495058967 -55.87452665626238
rtibia 40.21508736725301
rfoot -18.4160472302585 -17.945445462178608
rtoes 21.61173877150684
lfemur -44.70003439208061 8.208415746034984 -27.116885969711543
ltibia 44.04166953695262
lfoot -22.758531185768277 14.889786817757697
ltoes 10.861150573602398
254
root 0 0 0 45.00436339787154 -47.16274151283454 -18.508871997175632
lowerback -6.486925003951761 3.604449922324501 -0.483580049801723
upperback -13.44215647821873 4.310832643208964 -0.08318757843412028
thorax -11.04464238020562 2.1119439161333347 0.6774631729344083
lowerneck -11.438309920851779 6.768102411076954 4.4411109399626625
upperneck 18.169751385984558 7.239192385949545 7.284239936537437
head 7.632883812197927 4.2312476159820065 2.1629581468602903
rclavicle 9.219688837760721E-16 -1.833399920498032E-15
rhumerus 7.800199614588976 -22.478898975939344 -48.47014708825222
rradius 27.943952909129333
rwrist 21.213737103486114
rhand 0.7994792934438628 7.404162485480821
rfingers 7.1250200000000286
rthumb 26.41993142973621 -19.65416379824363
lclavicle 1.4618767786797326E-15 -9.144841908036693E-16
lhumerus -10.575461141527933 3.8492685306398897 51.46258147519844
lradius 35.64343234299863
lwrist -7.7380193291872015
lhand -1.774494028478614 23.317216662038163
lfingers 7.125019999999975
lthumb 23.49600956320745 50.49048603098747
rfemur 58.70784483586174 -81.68243398934072 -55.87418421768943
rtibia 40.21508874668941
rfoot -18.4160197125725 -17.94540385519263
rtoes 21.61169038101449
lfemur -44.700015428782606 8.208413444859845 -27.11687655827425
ltibia 44.04166092767137
lfoot -22.758524003367903 14.889777393420541
ltoes 10.861147596166818
255
root 0 0 0 45.00428056412577 -47.162621136478336 -18.508835436749425
lowerback -6.486909107911187 3.6044385309862808 -0.48358240878605424
upperback -13.442140573272741 4.310819191729399 -0.08317730614104146
thorax -11.044632762259706 2.111938041241733 0.6774744002418205
lowerneck -11.43830764011022 6.768077136390925 4.441092358988902
upperneck 18.169762788582855 7.239162959402741 7.284228114513597
head 7.632887379378898 4.2312315956817965 2.162954348156969
rclavicle 9.220974720845208E-16 -1.833480438211653E-15
rhumerus 7.798928099204707 -22.47898673592069 -48.46961192330683
rradius 27.944223439326077
rwrist 21.212981129337507
rhand 0.7992607017760616 7.404445972051942
rfingers 7.1250200000000286
rthumb 26.419731120156328 -19.65391758248507
lclavicle 1.4621005447950667E-15 -9.144588525074556E-16
lhumerus -10.575604653612046 3.8488420822201213 51.463398096827184
lradius 35.643829713011435
lwrist -7.737388449525929
lhand -1.7743480700059422 23.317080578706
lfingers 7.125019999999975
lthumb 23.49611493257901 50.49030802799117
rfemur 58.70756262573909 -81.68210777187248 -55.87385677387913
rtibia 40.21509009414755
rfoot -18.41599376252207 -17.94536406566668
rtoes 21.611644450090854
lfemur -44.699998286394 8.208411555254042 -27.116867867093813
ltibia 44.04165300441053
lfoot -22.758517118889763 14.889768822569385
ltoes 10.861144991037854
256
root 0 0 0 45.00420036841936 -47.16250344576834 -18.508799777659444
lowerback -6.486894119028175 3.6044272925609486 -0.48358486460764266
upperback -13.442125496859234 4.310805930800774 -0.08316713515380991
thorax -11.044623528685605 2.111932265680763 0.6774856028500567
lowerneck -11.438305027049823 6.76805247481617 4.441074159976915
upperneck 18.169774022026026 7.239134260117272 7.284216741102405
head 7.632890842756447 4.231215969295635 2.16295068930638
rclavicle 9.222197064212768E-16 -1.833557109891368E-15
rhumerus 7.797721907943073 -22.479070304018745 -48.46910129671974
rradius 27.94448019277126
rwrist 21.21226383118935
rhand 0.7990547481097767 7.404713876928884
rfingers 7.1250200000000286
rthumb 26.41954250819356 -19.653684824275633
lclavicle 1.4623131689967475E-15 -9.144351607109852E-16
lhumerus -10.575738443341518 3.848437344100205 51.46417115839188
lradius 35.644207936043735
lwrist -7.7367899681213075
lhand -1.7742074334562883 23.31695122752194
lfingers 7.125019999999975
lthumb 23.496217074504433 50.49013854045575
rfemur 58.70729225027515 -81.68179550765399 -55.87354350480296
rtibia 40.215091408839605
rfoot -18.415969252681297 -17.945325995212322
rtoes 21.611600817111423
lfemur -44.69998252290249 8.208409938763701 -27.11685976596285
ltibia 44.041645630022344
lfoot -22.75851049794712 14.889760902303522
ltoes 10.861142634295122
257
root 0 0 0 45.00412301099025 -47.16238904686968 -18.50876517414816
lowerback -6.486879965251908 3.6044162825011283 -0.4835873759669316
upperback -13.4421112251366 4.310792944713399 -0.0831571455374398
thorax -11.044614706002392 2.111926622976722 0.6774966769039379
lowerneck -11.438302176900272 6.768028549582903 4.441056442326617
upperneck 18.1697849740636 7.2391064305271176 7.284205843704932
head 7.632894175425778 4.231200814232958 2.162947180370911
rclavicle 9.22335826185964E-16 -1.83363005871086E-15
rhumerus 7.796578085342663 -22.479149807862633 -48.468614634767555
rradius 27.944723763551394
rwrist 21.211583491266026
rhand 0.7988606156397005 7.404967081146814
rfingers 7.1250200000000286
rthumb 26.419364820636254 -19.65346477521872
lclavicle 1.4625151348238168E-15 -9.144129632909978E-16
lhumerus -10.575863437308906 3.84805327472528 51.46490312856179
lradius 35.644567718205735
lwrist -7.736222276791678
lhand -1.7740722694256146 23.316828326610544
lfingers 7.125019999999975
lthumb 23.496315731909867 50.48997726849525
rfemur 58.7070331947305 -81.68149656657496 -55.87324375263316
rtibia 40.21509268955608
rfoot -18.415946075021356 -17.945289564824204
rtoes 21.611559344504247
lfemur -44.6999678150568 8.208408495998622 -27.116852156447198
ltibia 44.041638702598576
lfoot -22.758504118202033 14.889753484643963
ltoes 10.86114043877598
